<?xml version="1.0" encoding="UTF-8" standalone="no"?>
<svg
   xmlns:dc="http://purl.org/dc/elements/1.1/"
   xmlns:cc="http://creativecommons.org/ns#"
   xmlns:rdf="http://www.w3.org/1999/02/22-rdf-syntax-ns#"
   xmlns:svg="http://www.w3.org/2000/svg"
   xmlns="http://www.w3.org/2000/svg"
   xmlns:sodipodi="http://sodipodi.sourceforge.net/DTD/sodipodi-0.dtd"
   xmlns:inkscape="http://www.inkscape.org/namespaces/inkscape"
   version="1.1"
   x="0px"
   y="0px"
   viewBox="0 0 512 640"
   style="enable-background:new 0 0 512 512;"
   xml:space="preserve"
   id="svg1740"
   sodipodi:docname="size473.svg"
   inkscape:version="0.92.4 5da689c313, 2019-01-14"><metadata
     id="metadata1746"><rdf:RDF><cc:Work
         rdf:about=""><dc:format>image/svg+xml</dc:format><dc:type
           rdf:resource="http://purl.org/dc/dcmitype/StillImage" /><dc:title></dc:title></cc:Work></rdf:RDF></metadata><defs
     id="defs1744" /><sodipodi:namedview
     pagecolor="#ffffff"
     bordercolor="#666666"
     borderopacity="1"
     objecttolerance="10"
     gridtolerance="10"
     guidetolerance="10"
     inkscape:pageopacity="0"
     inkscape:pageshadow="2"
     inkscape:window-width="1918"
     inkscape:window-height="1013"
     id="namedview1742"
     showgrid="false"
     inkscape:zoom="1"
     inkscape:cx="138.16671"
     inkscape:cy="441.55367"
     inkscape:window-x="0"
     inkscape:window-y="66"
     inkscape:window-maximized="0"
     inkscape:current-layer="svg1740" /><path
     d="m 196.26953,115.51367 c -7.80664,0 -15.12695,3.01954 -20.61328,8.50195 -5.48828,5.48488 -8.51172,12.80713 -8.51367,20.61719 L 167.12695,217 l -0.008,22.83789 H 167.00781 167 l 0,141 h 0.008 0.0723 l -0.008,22.83789 -0.0156,94.31055 c -0.003,7.81055 3.01758,15.13427 8.50195,20.62305 5.48438,5.48828 12.80567,8.51123 20.61719,8.51367 l 119.55274,0.0391 h 0.01 c 7.80664,0 15.12695,-3.01953 20.61328,-8.50195 5.48828,-5.48487 8.51172,-12.80713 8.51367,-20.61719 l 0.0156,-94.36719 0.008,-22.83789 H 345 h 0.008 l 0,-141 H 345 344.9277 l 0.008,-22.83789 0.0156,-72.31055 c 0.003,-7.81055 -3.01758,-15.13427 -8.50195,-20.62304 -5.48438,-5.48828 -12.80567,-8.51124 -20.61719,-8.51368 l -119.55273,-0.0391 z m 0,20 h 0.004 l 119.55273,0.0371 c 2.46875,9.8e-4 4.76953,0.94288 6.47852,2.65234 1.708,1.70949 2.64746,4.01172 2.64648,6.48047 L 324.93555,217 l -0.008,22.83789 H 187.11914 l 0.008,-22.83789 0.0156,-72.36133 c 9.7e-4,-2.46875 0.9414,-4.77051 2.65039,-6.47851 1.70907,-1.70752 4.00879,-2.64649 6.47656,-2.64649 z m -9.15625,124.32422 h 137.80664 l -0.0254,123 H 187.08789 Z m -0.0332,143 h 137.80859 l -0.008,22.83789 -0.0156,72.36133 c -9.7e-4,2.46875 -0.9414,4.77052 -2.65039,6.47851 -1.70898,1.70752 -4.00879,2.64649 -6.47656,2.64649 h -0.004 L 196.18164,507.125 c -2.46875,-9.8e-4 -4.76952,-0.94287 -6.47852,-2.65234 -1.708,-1.70948 -2.64746,-4.01172 -2.64648,-6.48047 l 0.0156,-72.31641 z"
     id="path2296"
     inkscape:connector-curvature="0"
     sodipodi:nodetypes="sccccccccccccccsccccccccccccccscccccccccccsccccccccccsccccccc" /></svg>