<?xml version="1.0" encoding="UTF-8" standalone="no"?>
<svg
   xmlns:dc="http://purl.org/dc/elements/1.1/"
   xmlns:cc="http://creativecommons.org/ns#"
   xmlns:rdf="http://www.w3.org/1999/02/22-rdf-syntax-ns#"
   xmlns:svg="http://www.w3.org/2000/svg"
   xmlns="http://www.w3.org/2000/svg"
   xmlns:sodipodi="http://sodipodi.sourceforge.net/DTD/sodipodi-0.dtd"
   xmlns:inkscape="http://www.inkscape.org/namespaces/inkscape"
   version="1.1"
   x="0px"
   y="0px"
   viewBox="0 0 512 512"
   xml:space="preserve"
   id="svg1137"
   sodipodi:docname="size375.svg"
   inkscape:version="0.92.4 5da689c313, 2019-01-14"
   width="512"
   height="512"><metadata
     id="metadata1143"><rdf:RDF><cc:Work
         rdf:about=""><dc:format>image/svg+xml</dc:format><dc:type
           rdf:resource="http://purl.org/dc/dcmitype/StillImage" /><dc:title></dc:title></cc:Work></rdf:RDF></metadata><defs
     id="defs1141" /><sodipodi:namedview
     pagecolor="#ffffff"
     bordercolor="#666666"
     borderopacity="1"
     objecttolerance="10"
     gridtolerance="10"
     guidetolerance="10"
     inkscape:pageopacity="0"
     inkscape:pageshadow="2"
     inkscape:window-width="1918"
     inkscape:window-height="1060"
     id="namedview1139"
     showgrid="false"
     inkscape:zoom="1.0429825"
     inkscape:cx="-20.989873"
     inkscape:cy="277.20831"
     inkscape:window-x="0"
     inkscape:window-y="18"
     inkscape:window-maximized="0"
     inkscape:current-layer="svg1137" /><g
     id="g1131"><path
       d="m 325.97217,164.03076 c -8.94824,-13.05224 -21.17676,-23.21094 -35.54492,-29.57324 V 72.828491 c 5.8667,-0.226684 10.57324,-5.057007 10.57324,-10.978393 v -17 c 0,-6.06543 -4.93457,-11 -11,-11 h -68 c -6.06543,0 -11,4.93457 -11,11 v 17 c 0,5.374206 3.87646,9.852844 8.97851,10.805603 v 62.446839 c -29.82812,14.11719 -48.88379,43.79492 -48.88379,76.68848 v 241.23046 c 0,13.85596 11.27247,25.12842 25.12891,25.12842 h 119.55274 c 13.85546,0 25.12793,-11.27246 25.12793,-25.12842 V 212.32227 c 0,-17.34278 -5.16407,-34.04151 -14.93262,-48.29151 z M 223.00049,45.850098 h 66 v 15 h -66 z m 105.9043,407.171382 c 0,7.36182 -5.76661,13.12842 -13.12793,13.12842 H 196.22412 c -7.3623,0 -13.12891,-5.7666 -13.12891,-13.12842 V 211.79102 c 0,-29.37598 17.74122,-55.77637 45.19825,-67.25879 l 3.68554,-1.54151 V 72.850098 h 46.44825 v 69.730952 l 3.83984,1.48194 c 28.33105,10.93506 46.6377,37.72851 46.6377,68.25928 z"
       id="path1127"
       inkscape:connector-curvature="0" /></g><path
     d="m 187.00049,210.5 v 91 c 0,8.82227 7.17774,16 16,16 h 106 c 8.82227,0 16,-7.17773 16,-16 v -91 c 0,-8.82227 -7.17773,-16 -16,-16 h -106 c -8.82226,0 -16,7.17773 -16,16 z m 126,0 v 91 c 0,2.16846 -1.83154,4 -4,4 h -106 c -2.16845,0 -4,-1.83154 -4,-4 v -91 c 0,-2.16846 1.83155,-4 4,-4 h 106 c 2.16846,0 4,1.83154 4,4 z"
     id="path979"
     inkscape:connector-curvature="0" /><g
     id="g2099"><path
       inkscape:connector-curvature="0"
       id="path2097"
       d="m 325.97217,164.03076 c -8.94824,-13.05224 -21.17676,-23.21094 -35.54492,-29.57324 V 72.828491 c 5.8667,-0.226684 10.57324,-5.057007 10.57324,-10.978393 v -17 c 0,-6.06543 -4.93457,-11 -11,-11 h -68 c -6.06543,0 -11,4.93457 -11,11 v 17 c 0,5.374206 3.87646,9.852844 8.97851,10.805603 v 62.446839 c -29.82812,14.11719 -48.88379,43.79492 -48.88379,76.68848 v 241.23046 c 0,13.85596 11.27247,25.12842 25.12891,25.12842 h 119.55274 c 13.85546,0 25.12793,-11.27246 25.12793,-25.12842 V 212.32227 c 0,-17.34278 -5.16407,-34.04151 -14.93262,-48.29151 z M 223.00049,45.850098 h 66 v 15 h -66 z m 105.9043,407.171382 c 0,7.36182 -5.76661,13.12842 -13.12793,13.12842 H 196.22412 c -7.3623,0 -13.12891,-5.7666 -13.12891,-13.12842 V 211.79102 c 0,-29.37598 17.74122,-55.77637 45.19825,-67.25879 l 3.68554,-1.54151 V 72.850098 h 46.44825 v 69.730952 l 3.83984,1.48194 c 28.33105,10.93506 46.6377,37.72851 46.6377,68.25928 z" /></g></svg>