<?xml version="1.0" encoding="UTF-8" standalone="no"?>
<svg
   xmlns:dc="http://purl.org/dc/elements/1.1/"
   xmlns:cc="http://creativecommons.org/ns#"
   xmlns:rdf="http://www.w3.org/1999/02/22-rdf-syntax-ns#"
   xmlns:svg="http://www.w3.org/2000/svg"
   xmlns="http://www.w3.org/2000/svg"
   xmlns:sodipodi="http://sodipodi.sourceforge.net/DTD/sodipodi-0.dtd"
   xmlns:inkscape="http://www.inkscape.org/namespaces/inkscape"
   version="1.1"
   x="0px"
   y="0px"
   viewBox="0 0 512 512"
   xml:space="preserve"
   id="svg1740"
   sodipodi:docname="size473.svg"
   inkscape:version="0.92.4 5da689c313, 2019-01-14"
   width="512"
   height="512"><metadata
     id="metadata1746"><rdf:RDF><cc:Work
         rdf:about=""><dc:format>image/svg+xml</dc:format><dc:type
           rdf:resource="http://purl.org/dc/dcmitype/StillImage" /><dc:title></dc:title></cc:Work></rdf:RDF></metadata><defs
     id="defs1744" /><sodipodi:namedview
     pagecolor="#ffffff"
     bordercolor="#666666"
     borderopacity="1"
     objecttolerance="10"
     gridtolerance="10"
     guidetolerance="10"
     inkscape:pageopacity="0"
     inkscape:pageshadow="2"
     inkscape:window-width="1918"
     inkscape:window-height="1029"
     id="namedview1742"
     showgrid="false"
     inkscape:zoom="1.980175"
     inkscape:cx="256.84382"
     inkscape:cy="253.44938"
     inkscape:window-x="0"
     inkscape:window-y="50"
     inkscape:window-maximized="0"
     inkscape:current-layer="svg1740"
     inkscape:snap-bbox="true"
     inkscape:bbox-paths="true"
     inkscape:bbox-nodes="true"
     inkscape:snap-bbox-edge-midpoints="true"
     inkscape:snap-bbox-midpoints="true"
     inkscape:object-paths="true"
     inkscape:object-nodes="true"
     inkscape:snap-intersection-paths="true"
     inkscape:snap-smooth-nodes="true"
     inkscape:snap-midpoints="true"
     inkscape:snap-object-midpoints="true"
     inkscape:snap-center="true" /><path
     d="m 169.16406,61.625005 c -6.06543,-0.0035 -11,4.93457 -11,11 v 17 c 0,5.374206 3.87647,9.853882 8.97852,10.806645 v 7.34375 c -0.20835,113.02708 -0.0663,194.97297 -0.0859,313.40039 -0.003,7.8 3.01758,15.09961 8.50195,20.59961 5.48438,5.5 12.80567,8.5 20.61719,8.5 l 119.55274,0.0996 h 0.01 c 7.80664,0 15.12695,-3.1 20.61328,-8.5 5.48828,-5.5 8.51172,-12.79922 8.51367,-20.69922 0.16525,-117.26557 0.0622,-202.14781 0.0858,-313.30078 v -7.17188 c 5.8667,-0.22668 10.57227,-5.057129 10.57227,-10.978515 v -17 c 0,-6.06543 -4.93457,-10.996541 -11,-11 z m 1,12 173.35938,0.09961 v 15 l -173.35938,-0.09961 z m 12.49024,27.001955 146.91015,0.0957 c 0.25642,0.20333 0.50512,0.41846 0.74024,0.65234 1.708,1.7 2.64746,4 2.64648,6.5 -0.006,31.69988 -0.0125,71.39975 -0.0236,103.09962 H 179.11914 c 0.0122,-31.73308 0.0168,-71.46615 0.0236,-103.19923 9.7e-4,-2.4 0.9414,-4.70039 2.65039,-6.40039 0.27118,-0.26974 0.56209,-0.51475 0.86133,-0.74805 z m -3.54102,122.34766 h 153.80664 l -0.0254,83 H 179.08789 Z m -0.0332,95 h 153.80859 l -0.008,30.90039 -0.0156,80.30078 c -9.7e-4,2.5 -0.9414,4.8 -2.65039,6.5 -1.70898,1.7 -4.00879,2.69922 -6.47656,2.69922 h -0.004 l -135.55248,-0.0996 c -2.46875,0 -4.76952,-0.89961 -6.47852,-2.59961 -1.70799,-1.7 -2.64746,-4 -2.64648,-6.5 l 0.0156,-80.30078 z"
     id="path2296"
     inkscape:connector-curvature="0"
     sodipodi:nodetypes="csscccsccsccccssccccccccccccccccccccccccccsccccccc" /></svg>