<?xml version="1.0" encoding="UTF-8" standalone="no"?>
<svg
   xmlns:dc="http://purl.org/dc/elements/1.1/"
   xmlns:cc="http://creativecommons.org/ns#"
   xmlns:rdf="http://www.w3.org/1999/02/22-rdf-syntax-ns#"
   xmlns:svg="http://www.w3.org/2000/svg"
   xmlns="http://www.w3.org/2000/svg"
   xmlns:sodipodi="http://sodipodi.sourceforge.net/DTD/sodipodi-0.dtd"
   xmlns:inkscape="http://www.inkscape.org/namespaces/inkscape"
   version="1.1"
   x="0px"
   y="0px"
   viewBox="0 0 512 640"
   style="enable-background:new 0 0 512 512;"
   xml:space="preserve"
   id="svg1137"
   sodipodi:docname="size375.svg"
   inkscape:version="0.92.4 5da689c313, 2019-01-14"><metadata
     id="metadata1143"><rdf:RDF><cc:Work
         rdf:about=""><dc:format>image/svg+xml</dc:format><dc:type
           rdf:resource="http://purl.org/dc/dcmitype/StillImage" /><dc:title></dc:title></cc:Work></rdf:RDF></metadata><defs
     id="defs1141" /><sodipodi:namedview
     pagecolor="#ffffff"
     bordercolor="#666666"
     borderopacity="1"
     objecttolerance="10"
     gridtolerance="10"
     guidetolerance="10"
     inkscape:pageopacity="0"
     inkscape:pageshadow="2"
     inkscape:window-width="1918"
     inkscape:window-height="1029"
     id="namedview1139"
     showgrid="false"
     inkscape:zoom="1.0429825"
     inkscape:cx="-25.783817"
     inkscape:cy="277.20831"
     inkscape:window-x="0"
     inkscape:window-y="50"
     inkscape:window-maximized="0"
     inkscape:current-layer="svg1137" /><g
     id="g1131"><path
       d="M325.972168,164.0307617c-8.9482422-13.0522461-21.1767578-23.2109375-35.5449219-29.5732422V72.8284912   c5.8666992-0.2266846,10.5732422-5.0570068,10.5732422-10.9783936v-17c0-6.0654297-4.9345703-11-11-11h-68   c-6.0654297,0-11,4.9345703-11,11v17c0,5.3742065,3.8764648,9.8528442,8.9785156,10.805603v62.4468384   c-29.828125,14.1171875-48.8837891,43.7949219-48.8837891,76.6884766v241.2304688   c0,13.855957,11.2724609,25.128418,25.1289062,25.128418h119.5527344c13.8554688,0,25.1279297-11.2724609,25.1279297-25.128418   V212.3222656C340.9047852,194.9794922,335.7407227,178.2807617,325.972168,164.0307617z M223.0004883,45.8500977h66v15h-66   V45.8500977z M328.9047852,453.0214844c0,7.3618164-5.7666016,13.128418-13.1279297,13.128418H196.2241211   c-7.3623047,0-13.1289062-5.7666016-13.1289062-13.128418V211.7910156c0-29.3759766,17.7412109-55.7763672,45.1982422-67.2587891   l3.6855469-1.5415039v-70.140625h46.4482422v69.730957l3.8398438,1.4819336   c28.3310547,10.9350586,46.6376953,37.7285156,46.6376953,68.2592773V453.0214844z"
       id="path1127" /></g><path
     d="m 187.00049,250.3501 v 91 c 0,8.82227 7.17774,16 16,16 h 106 c 8.82227,0 16,-7.17773 16,-16 v -91 c 0,-8.82227 -7.17773,-16 -16,-16 h -106 c -8.82226,0 -16,7.17773 -16,16 z m 126,0 v 91 c 0,2.16846 -1.83154,4 -4,4 h -106 c -2.16845,0 -4,-1.83154 -4,-4 v -91 c 0,-2.16846 1.83155,-4 4,-4 h 106 c 2.16846,0 4,1.83154 4,4 z"
     id="path979"
     inkscape:connector-curvature="0" /></svg>