<?xml version="1.0" encoding="UTF-8" standalone="no"?>
<svg
   xmlns:dc="http://purl.org/dc/elements/1.1/"
   xmlns:cc="http://creativecommons.org/ns#"
   xmlns:rdf="http://www.w3.org/1999/02/22-rdf-syntax-ns#"
   xmlns:svg="http://www.w3.org/2000/svg"
   xmlns="http://www.w3.org/2000/svg"
   xmlns:sodipodi="http://sodipodi.sourceforge.net/DTD/sodipodi-0.dtd"
   xmlns:inkscape="http://www.inkscape.org/namespaces/inkscape"
   version="1.1"
   x="0px"
   y="0px"
   viewBox="0 0 512 640"
   style="enable-background:new 0 0 512 512;"
   xml:space="preserve"
   id="svg989"
   sodipodi:docname="size750.svg"
   inkscape:version="0.92.4 5da689c313, 2019-01-14"><metadata
     id="metadata995"><rdf:RDF><cc:Work
         rdf:about=""><dc:format>image/svg+xml</dc:format><dc:type
           rdf:resource="http://purl.org/dc/dcmitype/StillImage" /><dc:title></dc:title></cc:Work></rdf:RDF></metadata><defs
     id="defs993" /><sodipodi:namedview
     pagecolor="#ffffff"
     bordercolor="#666666"
     borderopacity="1"
     objecttolerance="10"
     gridtolerance="10"
     guidetolerance="10"
     inkscape:pageopacity="0"
     inkscape:pageshadow="2"
     inkscape:window-width="1918"
     inkscape:window-height="1060"
     id="namedview991"
     showgrid="false"
     inkscape:zoom="1.375"
     inkscape:cx="259.63636"
     inkscape:cy="349.09091"
     inkscape:window-x="0"
     inkscape:window-y="18"
     inkscape:window-maximized="0"
     inkscape:current-layer="svg989" /><g
     id="g983"
     transform="translate(68.745118)"><path
       d="m 162.75391,14.5 c -8.82227,0 -16,7.177734 -16,16 v 25 c 0,5.283569 2.58642,9.963562 6.54687,12.878906 l 0.01,30.31836 0.0117,0.376953 c 0.0264,0.432129 2.3413,43.601561 -19.55079,77.574221 -22.66699,35.17724 -45.837886,83.61279 -45.837886,176.13867 v 118.2832 c 0,14.57324 11.856445,26.42969 26.429686,26.42969 h 145.7832 c 14.57325,0 26.42969,-11.85645 26.42969,-26.42969 v -118.2832 c 0,-92.50537 -23.16797,-140.94971 -45.83203,-176.13867 -21.56885,-33.47754 -19.62988,-76.19385 -19.53516,-78.027346 l 0.006,-30.248047 C 225.17139,65.457336 227.75391,60.78064 227.75391,55.5 v -25 c 0,-8.822266 -7.17774,-16 -16,-16 z m 0,12 h 49 c 2.16845,0 4,1.831543 4,4 v 25 c 0,2.168457 -1.83155,4 -4,4 h -49 c -2.16846,0 -4,-1.831543 -4,-4 v -25 c 0,-2.168457 1.83154,-4 4,-4 z m 2.54687,45 h 43.91602 v 26.667969 c -0.27198,5.531741 -1.60498,49.214841 21.4375,84.980471 21.71875,33.7207 43.92187,80.24414 43.92187,169.63867 v 118.2832 c 0,7.95655 -6.47314,14.42969 -14.42969,14.42969 h -145.7832 c -7.95654,0 -14.429686,-6.47314 -14.429686,-14.42969 v -118.2832 c 0,-89.41406 22.205076,-135.9292 43.925786,-169.63867 23.40673,-36.32324 21.64208,-80.94385 21.45117,-84.61719 z"
       id="path977"
       inkscape:connector-curvature="0" /><path
       d="m 118.25488,327.5 v 91 c 0,8.82227 7.17774,16 16,16 h 106 c 8.82227,0 16,-7.17773 16,-16 v -91 c 0,-8.82227 -7.17773,-16 -16,-16 h -106 c -8.82226,0 -16,7.17773 -16,16 z m 126,0 v 91 c 0,2.16846 -1.83154,4 -4,4 h -106 c -2.16845,0 -4,-1.83154 -4,-4 v -91 c 0,-2.16846 1.83155,-4 4,-4 h 106 c 2.16846,0 4,1.83154 4,4 z"
       id="path979"
       inkscape:connector-curvature="0" /></g></svg>